<?xml version="1.0" standalone="no"?>
<!DOCTYPE svg PUBLIC "-//W3C//DTD SVG 20010904//EN"
 "http://www.w3.org/TR/2001/REC-SVG-20010904/DTD/svg10.dtd">
<svg version="1.0" xmlns="http://www.w3.org/2000/svg"
 width="512.000000pt" height="512.000000pt" viewBox="0 0 512.000000 512.000000"
 preserveAspectRatio="xMidYMid meet">
<metadata>
Created by potrace 1.11, written by Peter Selinger 2001-2013
</metadata>
<g transform="translate(0.000000,512.000000) scale(0.100000,-0.100000)"
fill="#000000" stroke="none">
<path d="M400 2560 l0 -2160 2160 0 2160 0 0 2160 0 2160 -2160 0 -2160 0 0
-2160z m3110 85 l0 -1435 -305 0 -305 0 0 141 0 140 -50 -60 c-177 -213 -413
-306 -729 -288 -174 10 -345 67 -478 159 -77 52 -197 173 -253 254 -145 210
-198 419 -187 739 11 312 78 525 227 723 174 231 413 352 726 369 273 14 476
-57 642 -223 l72 -74 0 495 0 495 320 0 320 0 0 -1435z"/>
<path d="M2234 2885 c-183 -40 -305 -171 -366 -394 -31 -110 -30 -361 1 -476
73 -271 228 -397 491 -397 166 0 269 41 368 146 58 61 111 163 139 266 25 92
25 335 0 443 -73 308 -333 477 -633 412z"/>
</g>
</svg>
