<?xml version="1.0" standalone="no"?>
<!DOCTYPE svg PUBLIC "-//W3C//DTD SVG 20010904//EN"
 "http://www.w3.org/TR/2001/REC-SVG-20010904/DTD/svg10.dtd">
<svg version="1.0" xmlns="http://www.w3.org/2000/svg"
 width="273.000000pt" height="273.000000pt" viewBox="0 0 273.000000 273.000000"
 preserveAspectRatio="xMidYMid meet">
<metadata>
Created by potrace 1.11, written by Peter Selinger 2001-2013
</metadata>
<g transform="translate(0.000000,273.000000) scale(0.100000,-0.100000)"
fill="#000000" stroke="none">
<path d="M1267 2594 c-1 -1 -62 -5 -136 -9 -74 -4 -142 -8 -151 -10 -9 -2 -54
-6 -101 -10 -163 -14 -244 -29 -243 -45 3 -28 14 -79 45 -204 16 -69 32 -133
34 -143 2 -10 11 -50 20 -90 l16 -71 66 34 c66 34 86 37 65 11 -19 -22 -98
-171 -166 -312 -35 -71 -112 -256 -171 -410 -159 -414 -385 -1018 -385 -1028
0 -5 37 -6 87 -2 49 3 117 8 153 11 36 2 85 6 110 9 25 2 72 7 105 11 51 5
101 14 165 29 8 2 46 13 85 24 85 25 91 26 74 4 -10 -11 -10 -14 -1 -9 9 5 12
-9 12 -63 0 -39 5 -73 11 -76 6 -4 8 -14 5 -22 -3 -8 -1 -11 4 -8 6 3 14 -5
20 -19 8 -23 24 -39 18 -19 -3 8 7 14 17 12 3 -1 19 -2 37 -3 19 0 33 -7 35
-16 4 -12 3 -12 -5 -2 -7 11 -11 10 -16 -4 -3 -9 -4 -19 -1 -22 3 -3 5 0 5 7
0 7 5 9 10 6 6 -4 7 -12 3 -18 -3 -7 3 -3 15 7 15 13 22 15 22 6 0 -10 3 -10
15 0 12 10 18 10 32 -1 11 -10 14 -10 9 -1 -9 15 6 16 20 2 7 -7 11 -6 11 4 0
8 -4 13 -8 10 -4 -2 -11 1 -15 7 -4 8 -9 7 -15 -2 -7 -12 -9 -12 -9 0 0 11 -3
11 -16 0 -13 -10 -17 -10 -24 0 -6 11 -9 11 -13 0 -4 -11 -6 -10 -6 2 -1 13 9
16 47 15 26 -1 53 -5 60 -9 6 -5 12 -4 12 1 0 13 98 8 112 -6 9 -9 9 -12 0
-12 -7 0 -12 5 -12 12 0 6 -3 8 -6 5 -8 -8 15 -37 29 -37 6 0 7 3 4 7 -4 3 -1
13 6 21 9 13 9 14 0 8 -7 -4 -13 -3 -13 2 0 5 22 8 49 8 39 -1 54 -7 71 -26
12 -14 18 -19 15 -12 -8 16 26 13 37 -3 5 -6 8 -5 8 3 0 7 4 11 8 8 5 -3 9 1
9 9 0 8 -5 11 -11 7 -18 -11 -35 -11 -42 0 -4 6 -10 5 -15 -3 -7 -11 -9 -11
-9 2 0 13 10 16 50 15 27 -1 55 -7 62 -14 9 -9 9 -12 0 -12 -7 0 -12 5 -12 12
0 6 -3 8 -6 5 -8 -8 15 -37 29 -37 6 0 7 3 4 7 -4 3 -1 13 6 21 9 13 9 14 0 8
-7 -4 -13 -3 -13 2 0 5 22 8 49 8 39 -1 54 -7 71 -26 12 -14 18 -19 15 -12 -8
16 26 13 37 -3 5 -6 8 -5 8 3 0 7 4 11 8 8 5 -3 9 1 9 9 0 8 -5 11 -11 7 -18
-11 -35 -11 -42 0 -4 6 -10 5 -15 -3 -7 -11 -9 -11 -9 2 0 13 10 16 50 15 27
-1 55 -7 62 -14 9 -9 9 -12 0 -12 -7 0 -12 5 -12 12 0 6 -3 8 -6 5 -8 -8 15
-37 29 -37 6 0 7 3 4 7 -4 3 -1 13 6 21 9 13 9 14 0 8 -7 -4 -13 -3 -13 2 0 5
22 8 49 8 39 -1 54 -7 71 -26 12 -14 18 -19 15 -12 -8 16 26 13 37 -3 5 -6 8
-5 8 3 0 7 4 11 8 8 5 -3 9 1 9 9 0 8 -5 11 -11 7 -18 -11 -35 -11 -42 0 -4 6
-10 5 -15 -3 -7 -11 -9 -11 -9 2 0 13 10 16 50 15 27 -1 55 -7 62 -14 9 -9 9
-12 0 -12 -7 0 -12 5 -12 12 0 6 -3 8 -6 5 -8 -8 15 -37 29 -37 6 0 7 3 4 7
-4 3 -1 13 6 21 9 13 9 14 0 8 -7 -4 -13 -3 -13 2 0 5 22 8 49 8 39 -1 54 -7
71 -26 12 -14 18 -19 15 -12 -8 16 26 13 37 -3 5 -6 8 -5 8 3 0 7 4 11 8 8 5
-3 9 1 9 9 0 8 -5 11 -11 7 -18 -11 -35 -11 -42 0 -4 6 -10 5 -15 -3 -7 -11
-9 -11 -9 2 0 13 10 16 50 15 27 -1 55 -7 62 -14 9 -9 9 -12 0 -12 -7 0 -12 5
-12 12 0 6 -3 8 -6 5 -8 -8 15 -37 29 -37 6 0 7 3 4 7 -4 3 -1 13 6 21 9 13 9
14 0 8 -7 -4 -13 -2 -13 3 0 6 10 9 23 7 15 -2 21 -10 20 -24 -2 -15 3 -20 17
-19 19 1 36 25 25 35 -3 3 -5 0 -5 -6 0 -7 -4 -12 -10 -12 -5 0 -10 6 -10 14
0 9 7 13 20 11 11 -2 20 1 20 7 0 6 3 8 7 5 3 -4 18 3 31 15 21 19 24 20 19 5
-4 -11 -3 -16 4 -12 5 4 7 16 3 27 -3 11 -2 18 2 15 5 -3 8 86 8 198 -2 176
-4 207 -20 234 -10 17 -25 34 -33 38 -9 4 -186 10 -394 13 l-379 5 66 44 c104
69 254 200 340 297 219 248 332 506 385 882 27 187 -43 346 -196 448 -107 71
-328 147 -463 160 -36 3 -81 7 -100 9 -96 10 -417 24 -423 19z m457 -436 c97
-26 129 -53 157 -133 28 -79 34 -232 14 -328 -42 -200 -202 -406 -463 -595
-95 -68 -310 -178 -412 -211 -74 -23 -150 -41 -150 -35 0 3 11 30 24 62 13 31
81 199 150 372 70 173 131 324 136 335 5 11 28 65 50 120 23 55 66 147 96 204
30 57 51 107 47 111 -4 3 -37 19 -73 34 -76 33 -106 56 -75 57 11 0 31 2 45 5
14 2 39 6 55 9 17 3 75 8 130 11 55 4 101 8 103 9 7 6 91 -8 166 -27z"/>
<path d="M2436 184 c-3 -8 -10 -13 -14 -10 -5 3 -9 -1 -9 -9 0 -13 3 -13 17 0
9 8 20 12 24 8 4 -4 4 0 0 10 -8 21 -10 21 -18 1z"/>
<path d="M1021 167 c7 -15 14 -25 17 -22 3 2 11 -3 19 -13 13 -15 13 -15 4 4
-7 14 -7 24 0 31 6 6 5 10 -5 10 -8 0 -13 -4 -10 -9 10 -16 -9 -8 -23 10 -12
15 -12 13 -2 -11z"/>
<path d="M970 170 c0 -5 5 -10 11 -10 5 0 7 5 4 10 -3 6 -8 10 -11 10 -2 0 -4
-4 -4 -10z"/>
<path d="M1239 175 c-1 0 -3 -11 -4 -24 l-2 -24 17 23 c17 22 18 22 28 4 7
-11 12 -13 12 -6 0 7 4 11 8 8 5 -3 9 0 9 7 0 10 -48 18 -68 12z"/>
<path d="M1376 164 c-3 -9 -4 -19 -1 -22 3 -3 5 1 5 8 0 9 5 8 13 -5 11 -14
16 -15 22 -5 6 9 4 11 -5 5 -9 -5 -11 -1 -6 16 3 13 3 18 0 10 -5 -10 -8 -10
-14 -1 -5 8 -9 7 -14 -6z"/>
<path d="M1427 162 c1 -8 3 -16 3 -18 0 -3 5 -2 10 1 6 3 10 14 10 23 0 13 -2
14 -9 3 -5 -7 -11 -9 -13 -5 -3 5 -3 3 -1 -4z"/>
<path d="M1616 164 c-3 -9 -4 -19 -1 -22 3 -3 5 1 5 8 0 9 5 8 13 -5 11 -14
16 -15 22 -5 6 9 4 11 -5 5 -9 -5 -11 -1 -6 16 3 13 3 18 0 10 -5 -10 -8 -10
-14 -1 -5 8 -9 7 -14 -6z"/>
<path d="M1667 162 c1 -8 3 -16 3 -18 0 -3 5 -2 10 1 6 3 10 14 10 23 0 13 -2
14 -9 3 -5 -7 -11 -9 -13 -5 -3 5 -3 3 -1 -4z"/>
<path d="M1856 164 c-3 -9 -4 -19 -1 -22 3 -3 5 1 5 8 0 9 5 8 13 -5 11 -14
16 -15 22 -5 6 9 4 11 -5 5 -9 -5 -11 -1 -6 16 3 13 3 18 0 10 -5 -10 -8 -10
-14 -1 -5 8 -9 7 -14 -6z"/>
<path d="M1907 162 c1 -8 3 -16 3 -18 0 -3 5 -2 10 1 6 3 10 14 10 23 0 13 -2
14 -9 3 -5 -7 -11 -9 -13 -5 -3 5 -3 3 -1 -4z"/>
<path d="M2096 164 c-3 -9 -4 -19 -1 -22 3 -3 5 1 5 8 0 9 5 8 13 -5 11 -14
16 -15 22 -5 6 9 4 11 -5 5 -9 -5 -11 -1 -6 16 3 13 3 18 0 10 -5 -10 -8 -10
-14 -1 -5 8 -9 7 -14 -6z"/>
<path d="M2147 162 c1 -8 3 -16 3 -18 0 -3 5 -2 10 1 6 3 10 14 10 23 0 13 -2
14 -9 3 -5 -7 -11 -9 -13 -5 -3 5 -3 3 -1 -4z"/>
<path d="M2336 165 c-9 -26 -7 -32 5 -12 6 10 9 21 6 23 -2 3 -7 -2 -11 -11z"/>
<path d="M996 152 c-3 -5 1 -9 9 -9 8 0 12 4 9 9 -3 4 -7 8 -9 8 -2 0 -6 -4
-9 -8z"/>
<path d="M1261 134 c0 -11 3 -14 6 -6 3 7 2 16 -1 19 -3 4 -6 -2 -5 -13z"/>
<path d="M1139 123 c-13 -17 -13 -17 6 -3 11 8 22 16 24 17 2 2 0 3 -6 3 -6 0
-17 -8 -24 -17z"/>
<path d="M1296 131 c-4 -5 3 -7 14 -4 23 6 26 13 6 13 -8 0 -17 -4 -20 -9z"/>
<path d="M1536 131 c-4 -5 3 -7 14 -4 23 6 26 13 6 13 -8 0 -17 -4 -20 -9z"/>
<path d="M1776 131 c-4 -5 3 -7 14 -4 23 6 26 13 6 13 -8 0 -17 -4 -20 -9z"/>
<path d="M2016 131 c-4 -5 3 -7 14 -4 23 6 26 13 6 13 -8 0 -17 -4 -20 -9z"/>
<path d="M2256 131 c-4 -5 3 -7 14 -4 23 6 26 13 6 13 -8 0 -17 -4 -20 -9z"/>
</g>
</svg>
